<?xml version="1.0" encoding="UTF-8" standalone="no"?>
<!DOCTYPE svg PUBLIC "-//W3C//DTD SVG 20010904//EN"
              "http://www.w3.org/TR/2001/REC-SVG-20010904/DTD/svg10.dtd">


<svg xmlns="http://www.w3.org/2000/svg"
     width="107.171mm" height="105.848mm"
     viewBox="0 0 405 400">
  <path 
        stroke="black" stroke-width="1"
        d="M 191.00,48.00
           C 191.00,48.00 196.00,50.00 196.00,50.00
             196.00,50.00 195.00,48.00 195.00,48.00
             200.04,48.00 205.65,47.59 209.45,51.68
             212.45,54.92 211.76,62.67 207.85,64.98
             205.95,66.10 203.15,65.98 201.00,66.00
             192.16,66.06 195.52,66.56 188.83,67.76
             188.83,67.76 179.04,68.96 179.04,68.96
             179.04,68.96 171.91,71.17 171.91,71.17
             171.91,71.17 164.09,72.84 164.09,72.84
             159.22,74.51 150.79,78.45 146.00,79.00
             146.00,79.00 147.00,81.00 147.00,81.00
             147.00,81.00 141.00,84.00 141.00,84.00
             141.00,84.00 139.00,83.00 139.00,83.00
             139.00,83.00 117.00,101.00 117.00,101.00
             117.00,101.00 114.00,101.00 114.00,101.00
             114.00,101.00 115.00,103.00 115.00,103.00
             115.00,103.00 114.00,104.00 114.00,104.00
             114.00,104.00 112.00,103.00 112.00,103.00
             109.61,111.10 95.05,121.20 92.00,134.00
             92.00,134.00 90.00,133.00 90.00,133.00
             89.30,137.27 87.69,142.49 84.00,145.00
             84.00,145.00 79.00,170.00 79.00,170.00
             79.00,170.00 77.00,169.00 77.00,169.00
             77.00,169.00 76.00,192.00 76.00,192.00
             75.81,204.19 63.95,205.86 59.29,198.41
             57.83,196.07 58.02,193.64 58.00,191.00
             57.90,173.10 59.04,168.64 63.91,151.91
             65.20,147.47 66.30,141.03 70.00,138.00
             70.41,129.83 79.88,115.88 84.77,109.25
             89.34,103.05 94.39,96.61 99.79,91.09
             103.34,87.47 106.51,85.35 110.42,82.32
             123.71,72.06 134.85,63.64 151.00,57.95
             151.00,57.95 161.28,54.43 161.28,54.43
             161.28,54.43 166.96,53.45 166.96,53.45
             169.99,52.64 170.40,51.66 174.08,51.08
             179.20,50.27 186.97,50.97 191.00,48.00 Z
           M 236.00,54.98
           C 247.49,54.13 249.38,69.03 240.83,72.00
             233.78,74.45 225.43,69.17 228.74,61.17
             230.03,58.07 233.13,56.32 236.00,54.98 Z
           M 264.43,67.98
           C 276.10,63.77 281.33,79.47 272.54,84.12
             266.29,87.42 258.25,82.16 259.15,75.07
             259.58,71.68 261.89,69.91 264.43,67.98 Z
           M 293.00,90.00
           C 293.00,90.00 306.00,90.00 306.00,90.00
             306.91,92.74 308.63,96.15 308.26,99.00
             307.04,108.34 298.33,108.41 292.00,104.00
             292.00,104.00 293.00,102.00 293.00,102.00
             288.66,98.50 291.92,94.48 293.00,90.00 Z
           M 114.00,102.00
           C 114.00,102.00 113.00,102.00 113.00,102.00
             113.00,102.00 114.00,103.00 114.00,103.00
             114.00,103.00 114.00,102.00 114.00,102.00 Z
           M 331.00,124.00
           C 330.47,126.39 329.86,128.75 328.52,130.86
             322.74,139.94 306.93,131.30 313.43,121.10
             314.99,118.66 316.12,117.48 319.09,117.12
             322.04,116.76 325.33,117.39 327.37,119.71
             329.17,121.78 328.20,122.95 331.00,124.00 Z
           M 115.00,245.00
           C 112.65,244.44 109.61,243.62 108.16,241.48
             106.24,238.64 107.00,222.35 107.00,218.00
             107.00,218.00 107.00,155.00 107.00,155.00
             107.00,152.52 106.75,148.61 108.16,146.52
             112.12,140.65 125.54,142.96 131.00,145.00
             131.00,145.00 130.00,148.00 130.00,148.00
             130.00,148.00 132.00,148.00 132.00,148.00
             129.72,154.79 129.26,154.00 118.00,154.00
             118.00,154.00 118.00,234.00 118.00,234.00
             129.26,234.00 129.72,233.21 132.00,240.00
             132.00,240.00 130.00,240.00 130.00,240.00
             130.00,240.00 131.00,243.00 131.00,243.00
             131.00,243.00 115.83,243.51 115.83,243.51
             115.83,243.51 115.00,245.00 115.00,245.00 Z
           M 289.00,143.00
           C 296.29,146.76 295.99,148.14 296.00,156.00
             296.00,156.00 296.00,218.00 296.00,218.00
             296.00,222.15 296.48,236.94 295.27,239.87
             294.42,241.91 292.50,243.43 291.00,245.00
             291.00,245.00 289.00,245.00 289.00,245.00
             284.22,241.48 280.39,243.72 275.11,242.87
             272.45,242.44 270.90,241.26 273.00,239.00
             273.00,239.00 272.00,235.00 272.00,235.00
             272.00,235.00 285.00,234.00 285.00,234.00
             285.00,234.00 285.00,154.00 285.00,154.00
             279.95,154.00 272.08,155.93 273.00,149.00
             270.90,146.74 272.45,145.56 275.11,145.13
             280.39,144.28 284.22,146.52 289.00,143.00 Z
           M 332.01,151.52
           C 335.39,151.30 338.38,151.51 340.57,154.54
             343.47,158.57 342.16,166.30 336.96,167.69
             322.96,171.41 319.09,155.23 332.01,151.52 Z
           M 226.00,153.00
           C 235.08,152.99 249.72,151.19 256.78,158.23
             260.03,161.47 262.45,169.43 261.79,174.00
             261.24,177.72 259.23,180.67 255.04,179.67
             248.07,178.01 253.58,169.83 249.00,168.00
             248.62,166.68 248.86,166.22 247.56,165.22
             244.08,162.25 231.02,163.03 227.14,165.22
             227.14,165.22 222.00,170.00 222.00,170.00
             223.76,178.07 222.96,200.46 223.00,210.00
             223.02,214.29 222.95,218.45 226.28,221.60
             230.60,225.92 246.19,226.18 250.26,221.60
             253.43,217.84 251.61,206.61 251.00,202.00
             251.00,202.00 246.00,202.00 246.00,202.00
             246.00,202.00 247.00,200.00 247.00,200.00
             244.58,200.19 243.92,199.70 243.00,202.00
             243.00,202.00 234.87,198.72 234.87,198.72
             232.26,196.47 233.13,192.67 236.33,191.48
             240.20,190.05 252.59,191.42 257.00,192.00
             257.00,192.00 261.41,199.04 261.41,199.04
             262.99,202.57 264.03,218.08 262.46,221.46
             261.86,222.74 261.54,222.51 261.00,223.00
             261.00,223.00 262.00,225.00 262.00,225.00
             262.00,225.00 260.00,229.00 260.00,229.00
             260.00,229.00 248.00,233.00 248.00,233.00
             248.00,233.00 249.00,235.00 249.00,235.00
             239.87,235.00 222.82,236.92 216.32,229.33
             212.72,225.12 212.03,220.30 212.00,215.00
             212.00,215.00 212.00,172.00 212.00,172.00
             212.08,165.16 212.68,160.19 220.00,158.00
             220.00,158.00 219.00,156.00 219.00,156.00
             219.00,156.00 227.00,155.00 227.00,155.00
             227.00,155.00 226.00,153.00 226.00,153.00 Z
           M 144.00,162.00
           C 144.00,162.00 152.16,155.80 152.16,155.80
             152.16,155.80 159.17,153.24 159.17,153.24
             159.17,153.24 178.83,153.24 178.83,153.24
             178.83,153.24 188.00,156.00 188.00,156.00
             189.39,161.54 191.87,159.42 192.00,169.00
             192.00,169.00 192.00,206.00 192.00,206.00
             192.00,213.17 190.64,225.98 194.00,232.00
             191.28,233.36 188.30,235.65 185.28,233.67
             182.46,231.82 183.05,227.92 182.99,225.00
             182.81,216.81 181.79,211.54 182.99,203.00
             182.99,203.00 153.00,203.00 153.00,203.00
             153.00,203.00 154.00,233.00 154.00,233.00
             154.00,233.00 150.00,233.00 150.00,233.00
             150.00,233.00 151.00,235.00 151.00,235.00
             143.68,234.49 143.05,231.74 143.00,225.00
             143.00,225.00 143.00,174.00 143.00,174.00
             143.00,174.00 144.00,162.00 144.00,162.00 Z
           M 180.00,154.00
           C 180.00,154.00 179.00,154.00 179.00,154.00
             179.00,154.00 180.00,155.00 180.00,155.00
             180.00,155.00 180.00,154.00 180.00,154.00 Z
           M 176.00,162.00
           C 176.00,162.00 159.18,164.01 159.18,164.01
             159.18,164.01 153.00,169.00 153.00,169.00
             153.00,169.00 154.00,194.00 154.00,194.00
             154.00,194.00 183.00,194.00 183.00,194.00
             183.00,188.76 183.73,172.18 181.80,168.33
             180.74,166.21 177.77,163.94 176.00,162.00 Z
           M 305.00,264.00
           C 308.79,260.51 311.63,254.61 314.08,249.96
             320.68,237.42 326.85,214.15 327.00,200.00
             327.04,195.88 326.36,191.48 329.31,188.15
             334.00,182.86 344.91,183.32 345.00,197.00
             345.16,220.64 342.29,218.06 341.00,234.00
             341.00,234.00 339.00,233.00 339.00,233.00
             339.00,233.00 338.00,243.00 338.00,243.00
             335.30,244.12 332.81,252.97 331.63,256.00
             329.30,262.06 319.42,279.32 314.00,282.00
             314.00,282.00 315.00,285.00 315.00,285.00
             315.00,285.00 304.20,295.60 304.20,295.60
             304.20,295.60 289.34,309.26 289.34,309.26
             289.34,309.26 279.00,317.00 279.00,317.00
             279.00,317.00 267.00,324.00 267.00,324.00
             267.00,324.00 264.00,323.00 264.00,323.00
             264.00,323.00 255.00,330.00 255.00,330.00
             255.00,330.00 251.00,329.00 251.00,329.00
             248.27,332.12 241.07,333.96 237.01,334.77
             237.01,334.77 229.83,336.78 229.83,336.78
             223.95,337.97 217.97,338.00 212.00,338.00
             212.00,338.00 213.00,340.00 213.00,340.00
             209.41,340.00 200.34,340.45 197.43,339.21
             192.81,337.25 188.90,331.66 191.49,326.76
             194.61,320.87 198.40,322.82 203.72,321.27
             211.04,319.14 211.25,320.51 218.00,319.72
             224.80,318.91 235.30,316.68 241.91,314.82
             245.08,313.92 248.95,311.26 252.13,309.69
             259.12,306.24 275.19,297.62 280.42,292.73
             280.42,292.73 297.56,275.12 297.56,275.12
             300.37,272.05 302.52,268.31 306.00,266.00
             306.00,266.00 305.00,264.00 305.00,264.00 Z
           M 343.00,219.00
           C 343.00,219.00 342.00,219.00 342.00,219.00
             342.00,219.00 343.00,220.00 343.00,220.00
             343.00,220.00 343.00,219.00 343.00,219.00 Z
           M 67.09,222.84
           C 78.69,219.89 83.53,235.37 73.83,239.15
             62.92,243.40 54.87,229.64 67.09,222.84 Z
           M 148.00,233.00
           C 148.00,233.00 147.00,233.00 147.00,233.00
             147.00,233.00 148.00,234.00 148.00,234.00
             148.00,234.00 148.00,233.00 148.00,233.00 Z
           M 227.00,233.00
           C 227.00,233.00 226.00,233.00 226.00,233.00
             226.00,233.00 227.00,234.00 227.00,234.00
             227.00,234.00 227.00,233.00 227.00,233.00 Z
           M 78.00,269.00
           C 69.53,265.94 74.95,250.95 84.83,254.01
             93.07,256.56 93.47,265.91 86.47,270.34
             83.33,272.34 80.39,271.58 77.00,271.00
             77.00,271.00 78.00,269.00 78.00,269.00 Z
           M 97.00,298.00
           C 97.00,298.00 95.13,290.93 95.13,290.93
             94.98,289.13 95.22,287.28 96.11,285.70
             97.16,283.83 99.05,282.46 101.05,281.77
             112.63,277.77 117.86,297.64 104.99,298.78
             102.69,298.98 99.38,298.31 97.00,298.00 Z
           M 130.46,303.88
           C 142.79,299.75 148.39,314.36 138.91,319.55
             128.12,325.45 121.17,310.95 130.46,303.88 Z
           M 161.18,319.98
           C 164.71,318.79 169.14,318.55 172.17,321.20
             176.28,324.80 175.81,333.18 168.57,336.21
             160.74,339.50 151.41,327.26 161.18,319.98 Z
           M 211.00,321.00
           C 211.00,321.00 210.00,321.00 210.00,321.00
             210.00,321.00 211.00,322.00 211.00,322.00
             211.00,322.00 211.00,321.00 211.00,321.00 Z" fill="url(#paint0_linear)"/>
<defs>
<linearGradient id="paint0_linear" x1="6.00017" y1="32.9999" x2="400" y2="400" gradientUnits="userSpaceOnUse">
<stop stop-color="#41D1FF"/>
<stop offset="1" stop-color="#BD34FE"/>
</linearGradient>
</defs>
</svg>
